<svg width="12" height="15" viewBox="0 0 12 15" fill="none" xmlns="http://www.w3.org/2000/svg">
<path d="M6.09199 15C5.15162 15 4.30664 14.8317 3.55707 14.4951C2.82112 14.1445 2.24191 13.6676 1.81942 13.0645C1.39693 12.4474 1.17888 11.7391 1.16525 10.9397H3.14821C3.21635 11.6269 3.48893 12.209 3.96593 12.6858C4.45656 13.1487 5.16525 13.3801 6.09199 13.3801C6.97785 13.3801 7.67291 13.1557 8.17717 12.7069C8.69506 12.244 8.954 11.655 8.954 10.9397C8.954 10.3787 8.80409 9.92286 8.50426 9.57223C8.20443 9.2216 7.82964 8.95512 7.3799 8.77279C6.93015 8.59046 6.32368 8.39411 5.56048 8.18373C4.6201 7.93128 3.86371 7.67882 3.29131 7.42637C2.73254 7.17391 2.24872 6.78121 1.83986 6.24825C1.44463 5.70126 1.24702 4.97195 1.24702 4.06031C1.24702 3.26087 1.44463 2.55259 1.83986 1.93548C2.23509 1.31837 2.78705 0.841514 3.49574 0.504908C4.21806 0.168302 5.04259 0 5.96934 0C7.30494 0 8.39523 0.343619 9.2402 1.03086C10.0988 1.71809 10.5826 2.62973 10.6917 3.76578H8.64736C8.57922 3.20477 8.29302 2.71388 7.78876 2.29313C7.2845 1.85834 6.6167 1.64095 5.78535 1.64095C5.00852 1.64095 4.37479 1.85133 3.88416 2.27209C3.39353 2.67882 3.14821 3.25386 3.14821 3.99719C3.14821 4.53015 3.29131 4.96494 3.57751 5.30154C3.87734 5.63815 4.2385 5.89762 4.66099 6.07994C5.0971 6.24825 5.70358 6.4446 6.48041 6.669C7.42078 6.93548 8.17717 7.20196 8.74958 7.46844C9.32198 7.7209 9.81261 8.12062 10.2215 8.6676C10.6303 9.20056 10.8348 9.92988 10.8348 10.8555C10.8348 11.5708 10.6508 12.244 10.2828 12.8752C9.91482 13.5063 9.36968 14.0182 8.64736 14.4109C7.92504 14.8036 7.07325 15 6.09199 15Z" fill="#667085"/>
<path d="M0 7.95231H12V9.00421H0V7.95231Z" fill="#667085"/>
</svg>
