<svg width="24" height="24" viewBox="0 0 24 24" fill="none" xmlns="http://www.w3.org/2000/svg">
<path d="M24 22.916V14.3493C24 13.8833 23.6164 13.5059 23.1428 13.5059H14.4356C13.962 13.5059 13.5784 13.8833 13.5784 14.3493V22.916C13.5784 23.382 13.962 23.7594 14.4356 23.7594H23.1423C23.6159 23.7594 24 23.382 24 22.916ZM22.2856 22.0725H15.2928V15.1927H22.285V22.0725H22.2856Z" fill="#667085"/>
<path d="M18.5958 10.8735C18.749 10.6125 18.749 10.291 18.5958 10.03L12.958 0.421718C12.8047 0.16078 12.5219 0 12.2154 0C11.9089 0 11.6261 0.16078 11.4728 0.421718L5.83501 10.03C5.68179 10.291 5.68179 10.6125 5.83501 10.8735C5.98824 11.1344 6.27112 11.2952 6.57758 11.2952H17.8538C18.1597 11.2952 18.4431 11.1344 18.5958 10.8735ZM8.06218 9.60833L12.2154 2.52978L16.3686 9.60833H8.06218Z" fill="#667085"/>
<path d="M10.9113 18.6326C10.9113 15.6727 8.46397 13.2646 5.45567 13.2646C2.44736 13.2646 0 15.6727 0 18.6326C0 21.5925 2.44736 24 5.45567 24C8.46397 24 10.9113 21.592 10.9113 18.6326ZM1.71444 18.6326C1.71444 16.6031 3.39245 14.9515 5.45567 14.9515C7.51889 14.9515 9.19689 16.6026 9.19689 18.6326C9.19689 20.6626 7.51889 22.3137 5.45567 22.3137C3.39245 22.3137 1.71444 20.6621 1.71444 18.6326Z" fill="#667085"/>
</svg>
