<svg width="12" height="18" viewBox="0 0 12 18" fill="none" xmlns="http://www.w3.org/2000/svg">
<path d="M2.25 18C1.63125 18 1.10156 17.7797 0.660938 17.3391C0.220313 16.8984 0 16.3687 0 15.75C0 15.1313 0.220313 14.6016 0.660938 14.1609C1.10156 13.7203 1.63125 13.5 2.25 13.5C2.86875 13.5 3.39844 13.7203 3.83906 14.1609C4.27969 14.6016 4.5 15.1313 4.5 15.75C4.5 16.3687 4.27969 16.8984 3.83906 17.3391C3.39844 17.7797 2.86875 18 2.25 18ZM9 18C8.38125 18 7.85156 17.7797 7.41094 17.3391C6.97031 16.8984 6.75 16.3687 6.75 15.75C6.75 15.1313 6.97031 14.6016 7.41094 14.1609C7.85156 13.7203 8.38125 13.5 9 13.5C9.61875 13.5 10.1484 13.7203 10.5891 14.1609C11.0297 14.6016 11.25 15.1313 11.25 15.75C11.25 16.3687 11.0297 16.8984 10.5891 17.3391C10.1484 17.7797 9.61875 18 9 18ZM2.25 11.25C1.63125 11.25 1.10156 11.0297 0.660938 10.5891C0.220313 10.1484 0 9.61875 0 9C0 8.38125 0.220313 7.85156 0.660938 7.41094C1.10156 6.97031 1.63125 6.75 2.25 6.75C2.86875 6.75 3.39844 6.97031 3.83906 7.41094C4.27969 7.85156 4.5 8.38125 4.5 9C4.5 9.61875 4.27969 10.1484 3.83906 10.5891C3.39844 11.0297 2.86875 11.25 2.25 11.25ZM9 11.25C8.38125 11.25 7.85156 11.0297 7.41094 10.5891C6.97031 10.1484 6.75 9.61875 6.75 9C6.75 8.38125 6.97031 7.85156 7.41094 7.41094C7.85156 6.97031 8.38125 6.75 9 6.75C9.61875 6.75 10.1484 6.97031 10.5891 7.41094C11.0297 7.85156 11.25 8.38125 11.25 9C11.25 9.61875 11.0297 10.1484 10.5891 10.5891C10.1484 11.0297 9.61875 11.25 9 11.25ZM2.25 4.5C1.63125 4.5 1.10156 4.27969 0.660938 3.83906C0.220313 3.39844 0 2.86875 0 2.25C0 1.63125 0.220313 1.10156 0.660938 0.660938C1.10156 0.220313 1.63125 0 2.25 0C2.86875 0 3.39844 0.220313 3.83906 0.660938C4.27969 1.10156 4.5 1.63125 4.5 2.25C4.5 2.86875 4.27969 3.39844 3.83906 3.83906C3.39844 4.27969 2.86875 4.5 2.25 4.5ZM9 4.5C8.38125 4.5 7.85156 4.27969 7.41094 3.83906C6.97031 3.39844 6.75 2.86875 6.75 2.25C6.75 1.63125 6.97031 1.10156 7.41094 0.660938C7.85156 0.220313 8.38125 0 9 0C9.61875 0 10.1484 0.220313 10.5891 0.660938C11.0297 1.10156 11.25 1.63125 11.25 2.25C11.25 2.86875 11.0297 3.39844 10.5891 3.83906C10.1484 4.27969 9.61875 4.5 9 4.5Z" fill="#667085"/>
</svg>
