<svg width="15" height="15" viewBox="0 0 15 15" fill="none" xmlns="http://www.w3.org/2000/svg">
<path d="M0.46875 0.46875H3.28125V3.28125H0.46875V0.46875ZM3.28125 3.28125H6.09375V6.09375H3.28125V3.28125ZM6.09375 0.46875H8.90625V3.28125H6.09375V0.46875ZM11.7188 0.46875H14.5312V3.28125H11.7188V0.46875ZM0.46875 6.09375H3.28125V8.90625H0.46875V6.09375ZM6.09375 6.09375H8.90625V8.90625H6.09375V6.09375ZM11.7188 6.09375H14.5312V8.90625H11.7188V6.09375ZM0.46875 11.7188H3.28125V14.5312H0.46875V11.7188ZM6.09375 11.7188H8.90625V14.5312H6.09375V11.7188ZM11.7188 11.7188H14.5312V14.5312H11.7188V11.7188ZM8.90625 3.28125H11.7188V6.09375H8.90625V3.28125ZM3.28125 8.90625H6.09375V11.7188H3.28125V8.90625ZM8.90625 8.90625H11.7188V11.7188H8.90625V8.90625Z" fill="#667085"/>
</svg>
