<svg width="14" height="13" viewBox="0 0 14 13" fill="none" xmlns="http://www.w3.org/2000/svg">
<path d="M5.25004 12.8335C3.90282 12.8335 2.74657 12.396 1.78129 11.521C0.816013 10.646 0.333374 9.55572 0.333374 8.25016C0.333374 6.94461 0.816013 5.85433 1.78129 4.97933C2.74657 4.10433 3.90282 3.66683 5.25004 3.66683H10.5L8.33337 1.50016L9.50004 0.333496L13.6667 4.50016L9.50004 8.66683L8.33337 7.50016L10.5 5.3335H5.25004C4.37504 5.3335 3.61462 5.61127 2.96879 6.16683C2.32296 6.72238 2.00004 7.41683 2.00004 8.25016C2.00004 9.0835 2.32296 9.77794 2.96879 10.3335C3.61462 10.8891 4.37504 11.1668 5.25004 11.1668H11.1667V12.8335H5.25004Z" fill="#344054"/>
</svg>
