<svg width="14" height="14" viewBox="0 0 14 14" fill="none" xmlns="http://www.w3.org/2000/svg">
<path d="M3.31472 0V7.28926C3.31472 8.31405 3.61424 8.76033 4.21328 9.2562C4.82564 9.75207 5.67096 10 6.74924 10C7.81421 10 8.64622 9.75207 9.24526 9.2562C9.85762 8.76033 10.1638 8.31405 10.1638 7.28926V0H11.9809V7.27273C11.9809 8.23141 11.7479 9.04132 11.282 9.70248C10.8161 10.3526 10.1838 10.8375 9.38504 11.157C8.59963 11.4766 7.71437 11.6364 6.72927 11.6364C5.74418 11.6364 4.85227 11.4766 4.05354 11.157C3.26812 10.8375 2.64245 10.3526 2.17653 9.70248C1.72392 9.04132 1.49761 8.23141 1.49761 7.27273V0H3.31472Z" fill="#667085"/>
<path d="M0.00195312 13H13.4805L13.4785 14H0L0.00195312 13Z" fill="#667085"/>
</svg>
