<svg width="14" height="13" viewBox="0 0 14 13" fill="none" xmlns="http://www.w3.org/2000/svg">
<path d="M2.83334 12.8335V11.1668H8.75001C9.62501 11.1668 10.3854 10.8891 11.0313 10.3335C11.6771 9.77794 12 9.0835 12 8.25016C12 7.41683 11.6771 6.72238 11.0313 6.16683C10.3854 5.61127 9.62501 5.3335 8.75001 5.3335H3.50001L5.66668 7.50016L4.50001 8.66683L0.333344 4.50016L4.50001 0.333496L5.66668 1.50016L3.50001 3.66683H8.75001C10.0972 3.66683 11.2535 4.10433 12.2188 4.97933C13.184 5.85433 13.6667 6.94461 13.6667 8.25016C13.6667 9.55572 13.184 10.646 12.2188 11.521C11.2535 12.396 10.0972 12.8335 8.75001 12.8335H2.83334Z" fill="#344054"/>
</svg>
