<svg width="20" height="13" viewBox="0 0 20 13" fill="none" xmlns="http://www.w3.org/2000/svg">
<path d="M0 12.4611L4.6729 0H6.91589L11.5888 12.4611H9.43925L8.31776 9.28349H3.27103L2.14953 12.4611H0ZM3.92523 7.47664H7.66355L5.8567 2.3053H5.73209L3.92523 7.47664ZM15.4206 12.8037C14.4029 12.8037 13.6033 12.5389 13.0218 12.0093C12.4403 11.4798 12.1495 10.758 12.1495 9.84424C12.1495 8.97196 12.487 8.26064 13.162 7.71028C13.837 7.15992 14.7041 6.88474 15.7632 6.88474C16.2409 6.88474 16.6822 6.92108 17.0872 6.99377C17.4922 7.06646 17.8401 7.18588 18.1308 7.35203V6.91589C18.1308 6.35514 17.9387 5.90862 17.5545 5.57632C17.1703 5.24403 16.6459 5.07788 15.9813 5.07788C15.5452 5.07788 15.135 5.17134 14.7508 5.35826C14.3666 5.54517 14.0395 5.81516 13.7695 6.16822L12.4299 5.17134C12.8245 4.61059 13.3229 4.18484 13.9252 3.89408C14.5275 3.60332 15.2233 3.45794 16.0125 3.45794C17.3001 3.45794 18.2866 3.76428 18.972 4.37695C19.6573 4.98962 20 5.87747 20 7.0405V12.5234H18.162V11.4642H18.0685C17.7985 11.8795 17.4351 12.2066 16.9782 12.4455C16.5213 12.6843 16.0021 12.8037 15.4206 12.8037ZM15.7321 11.2461C16.3967 11.2461 16.9626 11.0125 17.4299 10.5452C17.8972 10.0779 18.1308 9.51194 18.1308 8.84735C17.8401 8.68121 17.5078 8.55659 17.134 8.47352C16.7601 8.39045 16.4174 8.34891 16.1059 8.34891C15.4413 8.34891 14.9325 8.47871 14.5794 8.73832C14.2264 8.99792 14.0498 9.36656 14.0498 9.84424C14.0498 10.2596 14.2056 10.5971 14.5171 10.8567C14.8287 11.1163 15.2336 11.2461 15.7321 11.2461Z" fill="#667085"/>
</svg>
